<svg width="496" height="369" viewBox="0 0 496 369" fill="none" xmlns="http://www.w3.org/2000/svg">
<g clip-path="url(#clip0_252_1272)">
<path d="M102.969 237.239C80.5444 215.222 71.0731 192.252 76.2996 172.561C83.0068 147.293 112.803 129.822 158.049 124.628L158.217 126.077C113.6 131.199 84.2583 148.277 77.7136 172.934C72.6271 192.097 81.9609 214.565 103.996 236.2L102.969 237.239Z" fill="#F0F0F0"/>
<path d="M319.333 315.396C291.345 315.396 260.931 311.247 230.722 303.271C193.364 293.407 159.111 278.518 131.665 260.214L132.478 259.001C159.791 277.217 193.893 292.038 231.096 301.861C264.716 310.738 298.589 314.852 329.039 313.766L329.092 315.223C325.876 315.339 322.623 315.396 319.333 315.396Z" fill="#F0F0F0"/>
<path d="M383.54 306.222L383.072 304.841C408.103 296.4 423.759 282.802 428.347 265.517C434.18 243.544 421.509 218.045 392.668 193.717C363.681 169.267 321.88 148.979 274.965 136.591L275.339 135.181C322.459 147.623 364.463 168.016 393.612 192.604C422.909 217.315 435.747 243.342 429.761 265.89C425.042 283.671 409.059 297.618 383.54 306.222Z" fill="#F0F0F0"/>
<path d="M153.695 316.005C98.7007 291.679 56.3234 260.118 34.3701 227.137L35.5884 226.33C57.39 259.083 99.5448 290.457 154.288 314.672L153.695 316.005Z" fill="#F0F0F0"/>
<path d="M347.051 358.149C341.378 358.149 335.609 358.023 329.743 357.77L329.806 356.313C373.583 358.203 412.209 352.978 441.514 341.199L442.061 342.553C416.497 352.826 383.914 358.149 347.051 358.149Z" fill="#F0F0F0"/>
<path d="M315.142 125.936C306.053 122.984 296.703 120.236 287.354 117.767C233.551 103.561 180.662 98.5175 134.403 103.184L134.256 101.732C180.688 97.0506 233.757 102.107 287.728 116.357C297.104 118.833 306.48 121.589 315.595 124.549L315.142 125.936Z" fill="#F0F0F0"/>
<path d="M68.5993 239.427C46.1743 217.41 36.703 194.44 41.9295 174.749C48.6366 149.481 78.4333 132.01 123.679 126.816L123.846 128.265C79.2303 133.387 49.8882 150.465 43.3435 175.122C38.257 194.285 47.5908 216.753 69.6255 238.388L68.5993 239.427Z" fill="#F0F0F0"/>
<path d="M284.963 317.584C256.975 317.584 226.561 313.435 196.352 305.459C158.994 295.595 124.741 280.706 97.2952 262.402L98.1078 261.189C125.421 279.405 159.523 294.226 196.726 304.049C230.346 312.926 264.219 317.04 294.669 315.954L294.721 317.411C291.506 317.527 288.253 317.584 284.963 317.584Z" fill="#F0F0F0"/>
<path d="M349.17 308.41L348.702 307.029C373.733 298.588 389.389 284.99 393.977 267.705C399.81 245.732 387.139 220.233 358.298 195.905C329.311 171.455 287.51 151.167 240.595 138.779L240.969 137.369C288.089 149.811 330.093 170.204 359.242 194.792C388.538 219.503 401.377 245.53 395.391 268.078C390.672 285.859 374.688 299.806 349.17 308.41Z" fill="#F0F0F0"/>
<path d="M119.325 318.193C64.3306 293.867 21.9533 262.306 0 229.325L1.21833 228.518C23.0199 261.271 65.1747 292.645 119.918 316.86L119.325 318.193Z" fill="#F0F0F0"/>
<path d="M312.681 360.337C307.008 360.337 301.239 360.211 295.373 359.958L295.436 358.501C339.213 360.391 377.839 355.166 407.144 343.387L407.691 344.741C382.127 355.014 349.544 360.337 312.681 360.337Z" fill="#F0F0F0"/>
<path d="M280.772 128.124C271.683 125.172 262.333 122.424 252.984 119.955C199.181 105.749 146.292 100.706 100.033 105.372L99.8861 103.92C146.318 99.2387 199.387 104.295 253.358 118.545C262.734 121.021 272.11 123.777 281.225 126.737L280.772 128.124Z" fill="#F0F0F0"/>
<path d="M24.9285 200.357C35.4386 188.604 52.204 181.441 67.3972 185.729C53.3808 195.622 43.3247 210.141 39.0081 226.717C37.3666 233.115 36.2088 240.403 30.8733 244.315C27.5535 246.749 23.1546 247.331 19.0719 246.776C14.989 246.222 11.1285 244.638 7.32009 243.069L6.29529 243.158C9.24167 227.686 14.4184 212.11 24.9285 200.357Z" fill="#F2F2F2"/>
<path d="M67.3508 186.056C54.6482 189.124 43.2377 196.105 34.7399 206.009C32.8725 208.108 31.3487 210.488 30.2245 213.061C29.2106 215.603 28.8975 218.369 29.3179 221.072C29.6592 223.601 30.3018 226.147 30.0208 228.714C29.8575 230.026 29.4179 231.289 28.731 232.419C28.0441 233.55 27.1253 234.523 26.035 235.274C23.367 237.217 20.1581 238.088 16.9903 238.831C13.4732 239.656 9.80682 240.458 6.93976 242.789C6.59238 243.072 6.17324 242.517 6.52011 242.235C11.5083 238.179 18.4407 238.7 23.9597 235.754C26.5349 234.379 28.7104 232.222 29.2393 229.262C29.7019 226.674 29.0415 224.047 28.6738 221.49C28.2249 218.86 28.4288 216.159 29.2676 213.625C30.2569 211.003 31.6862 208.568 33.4945 206.425C37.4883 201.535 42.2282 197.301 47.5405 193.879C53.5818 189.94 60.254 187.061 67.2687 185.367C67.7029 185.262 67.7822 185.952 67.3508 186.056Z" fill="white"/>
<path d="M37.2879 202.659C35.8155 201.012 34.9781 198.896 34.9255 196.689C34.8728 194.483 35.6083 192.329 37.0005 190.614C37.2834 190.268 37.836 190.69 37.5527 191.037C36.2534 192.632 35.5685 194.638 35.6217 196.692C35.6749 198.747 36.4628 200.715 37.8431 202.241C38.1426 202.573 37.5857 202.989 37.2879 202.659Z" fill="white"/>
<path d="M28.9756 219.813C33.4893 220.112 37.9501 218.703 41.4687 215.868C41.817 215.587 42.2363 216.141 41.8883 216.421C38.2213 219.365 33.5762 220.822 28.8798 220.501C28.4322 220.47 28.5304 219.782 28.9756 219.813Z" fill="white"/>
<path d="M53.7382 190.848C54.1747 191.603 54.7926 192.239 55.5365 192.698C56.2804 193.157 57.1268 193.424 57.9999 193.476C58.4477 193.502 58.3489 194.189 57.9041 194.164C56.9397 194.102 56.0053 193.805 55.1823 193.3C54.3593 192.795 53.6729 192.097 53.183 191.266C53.1303 191.192 53.1079 191.1 53.1205 191.01C53.1331 190.919 53.1796 190.837 53.2508 190.78C53.3245 190.725 53.4171 190.701 53.5084 190.714C53.5997 190.726 53.6822 190.775 53.7382 190.848Z" fill="white"/>
<path d="M88.9643 234.519C88.6842 234.511 88.4042 234.503 88.1205 234.5C84.3549 234.414 80.5884 234.633 76.8584 235.155C76.5693 235.191 76.277 235.232 75.9896 235.276C67.0165 236.629 58.3733 239.633 50.4996 244.134C47.3681 245.928 44.3779 247.956 41.5551 250.203C37.6568 253.305 33.6774 256.978 29.1135 258.568C28.6393 258.739 28.1548 258.881 27.6629 258.993L6.48306 244.398C6.45162 244.341 6.41662 244.288 6.38493 244.23L5.51257 243.686C5.65005 243.56 5.79535 243.433 5.93282 243.307C6.01226 243.233 6.09645 243.163 6.17586 243.09C6.23031 243.042 6.28503 242.994 6.33142 242.948C6.34949 242.932 6.36779 242.916 6.38254 242.904C6.42894 242.858 6.47696 242.82 6.52001 242.778C7.33022 242.062 8.14687 241.351 8.96999 240.643C8.97333 240.638 8.97334 240.638 8.9814 240.637C15.2669 235.263 22.0575 230.366 29.3774 226.652C29.5977 226.541 29.8211 226.424 30.051 226.319C33.3598 224.663 36.7988 223.28 40.3335 222.183C42.271 221.589 44.2374 221.092 46.2252 220.696C51.3632 219.683 56.6292 219.481 61.8299 220.1C72.1974 221.334 82.0537 225.862 88.4794 233.9C88.6436 234.105 88.8034 234.308 88.9643 234.519Z" fill="#F2F2F2"/>
<path d="M88.7309 234.754C76.7369 229.575 63.4118 228.298 50.6483 231.103C47.8899 231.658 45.2365 232.643 42.7857 234.022C40.4418 235.443 38.5221 237.463 37.226 239.874C35.9723 242.098 34.948 244.517 33.1742 246.398C32.2518 247.347 31.1387 248.091 29.9078 248.582C28.6769 249.072 27.356 249.297 26.0317 249.242C22.7285 249.192 19.6405 247.96 16.6627 246.651C13.3564 245.198 9.94526 243.636 6.24879 243.776C5.80091 243.793 5.80076 243.099 6.24796 243.082C12.6792 242.839 17.9 247.417 24.085 248.379C26.971 248.828 30.0101 248.412 32.2192 246.366C34.1509 244.577 35.2093 242.084 36.4593 239.821C37.6891 237.451 39.4821 235.417 41.6816 233.897C44.0541 232.398 46.6651 231.313 49.4028 230.687C55.5436 229.181 61.8838 228.647 68.191 229.104C75.3922 229.587 82.4576 231.295 89.0815 234.154C89.4914 234.331 89.1382 234.93 88.7309 234.754Z" fill="white"/>
<path d="M54.7049 229.958C54.5238 227.758 55.1325 225.566 56.4225 223.773C57.7124 221.98 59.5994 220.702 61.7466 220.168C62.1815 220.062 62.3678 220.731 61.9324 220.837C59.932 221.331 58.1743 222.521 56.9766 224.193C55.7789 225.866 55.22 227.91 55.4008 229.957C55.4396 230.402 54.7434 230.401 54.7049 229.958Z" fill="white"/>
<path d="M37.7128 238.663C41.1362 241.612 45.5484 243.166 50.0695 243.015C50.5174 243 50.5177 243.694 50.0703 243.709C45.3653 243.858 40.777 242.231 37.2213 239.155C36.8826 238.861 37.376 238.371 37.7128 238.663Z" fill="white"/>
<path d="M74.9696 230.405C74.8619 231.271 74.9714 232.15 75.2883 232.963C75.6053 233.776 76.1197 234.498 76.7855 235.063C77.1277 235.353 76.634 235.842 76.294 235.555C75.5613 234.926 74.9942 234.129 74.642 233.231C74.2898 232.334 74.1634 231.364 74.2737 230.406C74.2765 230.315 74.314 230.229 74.3785 230.164C74.4431 230.099 74.5299 230.062 74.6212 230.059C74.7133 230.059 74.8016 230.096 74.8669 230.161C74.9321 230.226 74.969 230.314 74.9696 230.405Z" fill="white"/>
<path d="M436.752 296.702C430.814 282.109 417.438 269.743 401.683 268.688C411.551 282.704 416.129 299.75 414.609 316.808C413.998 323.385 412.633 330.637 416.34 336.11C418.646 339.515 422.593 341.538 426.625 342.384C430.657 343.231 434.827 343.033 438.943 342.832L439.878 343.259C442.317 327.699 442.69 311.294 436.752 296.702Z" fill="#F2F2F2"/>
<path d="M401.617 269.012C412.547 276.159 420.941 286.56 425.607 298.736C426.658 301.339 427.291 304.092 427.483 306.892C427.581 309.625 426.944 312.336 425.637 314.74C424.464 317.007 423.001 319.19 422.4 321.702C422.112 322.993 422.1 324.329 422.366 325.624C422.632 326.919 423.17 328.143 423.943 329.217C425.801 331.941 428.53 333.837 431.263 335.599C434.298 337.555 437.481 339.539 439.395 342.696C439.627 343.078 440.209 342.697 439.977 342.315C436.646 336.823 429.941 334.989 425.736 330.364C423.774 328.206 422.452 325.446 422.951 322.481C423.388 319.888 424.895 317.635 426.103 315.35C427.412 313.023 428.13 310.411 428.194 307.743C428.146 304.942 427.62 302.17 426.64 299.545C424.526 293.601 421.489 288.024 417.638 283.021C413.276 277.286 407.962 272.338 401.927 268.39C401.553 268.146 401.246 268.77 401.617 269.012Z" fill="white"/>
<path d="M424.336 294.727C426.278 293.669 427.78 291.957 428.573 289.896C429.366 287.836 429.399 285.561 428.666 283.479C428.516 283.058 427.853 283.27 428.003 283.692C428.689 285.63 428.658 287.748 427.916 289.666C427.173 291.583 425.768 293.172 423.954 294.147C423.56 294.359 423.944 294.938 424.336 294.727Z" fill="white"/>
<path d="M426.384 313.669C422.032 312.438 418.305 309.616 415.947 305.766C415.714 305.384 415.132 305.765 415.365 306.146C417.827 310.148 421.711 313.077 426.242 314.349C426.674 314.47 426.814 313.79 426.384 313.669Z" fill="white"/>
<path d="M412.823 278.088C412.157 278.654 411.361 279.045 410.506 279.228C409.65 279.411 408.763 279.379 407.923 279.135C407.493 279.009 407.354 279.689 407.782 279.815C408.711 280.08 409.691 280.114 410.636 279.914C411.581 279.714 412.463 279.286 413.205 278.668C413.279 278.616 413.331 278.537 413.35 278.448C413.369 278.358 413.352 278.265 413.305 278.188C413.254 278.111 413.175 278.058 413.084 278.039C412.994 278.02 412.9 278.038 412.823 278.088Z" fill="white"/>
<path d="M364.929 307.41C365.196 307.497 365.462 307.583 365.73 307.675C369.306 308.857 372.78 310.326 376.117 312.068C376.377 312.198 376.638 312.335 376.894 312.472C384.889 316.755 392.017 322.482 397.916 329.36C400.261 332.099 402.394 335.012 404.295 338.074C406.921 342.303 409.431 347.096 413.194 350.124C413.583 350.444 413.992 350.74 414.417 351.01L439.283 344.364C439.332 344.32 439.383 344.283 439.432 344.239L440.437 344.019C440.35 343.854 440.256 343.685 440.169 343.52C440.119 343.425 440.064 343.33 440.013 343.235C439.978 343.171 439.943 343.108 439.915 343.049C439.903 343.028 439.891 343.006 439.881 342.991C439.853 342.932 439.821 342.88 439.794 342.826C439.272 341.88 438.743 340.936 438.206 339.994C438.205 339.988 438.205 339.988 438.198 339.984C434.089 332.816 429.343 325.927 423.701 319.976C423.531 319.797 423.36 319.612 423.179 319.436C420.62 316.768 417.848 314.312 414.888 312.094C413.264 310.885 411.579 309.758 409.84 308.719C405.343 306.042 400.451 304.087 395.344 302.926C385.164 300.613 374.355 301.574 365.595 306.99C365.371 307.129 365.152 307.266 364.929 307.41Z" fill="#F2F2F2"/>
<path d="M365.07 307.71C378.111 306.853 391.092 310.117 402.168 317.037C404.578 318.485 406.746 320.302 408.589 322.423C410.318 324.546 411.445 327.093 411.853 329.798C412.285 332.312 412.434 334.934 413.471 337.3C414.02 338.504 414.817 339.578 415.811 340.452C416.806 341.326 417.974 341.981 419.239 342.373C422.368 343.433 425.691 343.308 428.936 343.074C432.54 342.813 436.279 342.486 439.713 343.857C440.13 344.023 440.364 343.369 439.948 343.203C433.973 340.819 427.513 343.381 421.364 342.213C418.494 341.668 415.772 340.258 414.381 337.591C413.164 335.258 413.008 332.555 412.593 330.005C412.234 327.36 411.23 324.844 409.671 322.675C407.942 320.468 405.848 318.57 403.481 317.063C398.205 313.586 392.413 310.958 386.319 309.275C379.374 307.315 372.144 306.555 364.942 307.028C364.496 307.057 364.627 307.739 365.07 307.71Z" fill="white"/>
<path d="M398.733 314.599C399.644 312.588 399.81 310.32 399.199 308.198C398.589 306.077 397.242 304.241 395.4 303.018C395.026 302.772 394.625 303.34 394.999 303.586C396.717 304.721 397.971 306.432 398.536 308.408C399.1 310.385 398.938 312.498 398.078 314.365C397.891 314.771 398.547 315.003 398.733 314.599Z" fill="white"/>
<path d="M411.803 328.494C407.585 330.124 402.906 330.108 398.699 328.45C398.282 328.286 398.048 328.939 398.464 329.104C402.845 330.821 407.714 330.827 412.1 329.122C412.518 328.959 412.218 328.332 411.803 328.494Z" fill="white"/>
<path d="M379.496 308.228C379.306 309.079 378.907 309.87 378.334 310.529C377.762 311.189 377.034 311.696 376.216 312.006C375.796 312.163 376.096 312.79 376.513 312.633C377.415 312.287 378.218 311.726 378.852 310.999C379.487 310.271 379.932 309.4 380.151 308.462C380.179 308.375 380.173 308.281 380.134 308.198C380.095 308.116 380.026 308.051 379.941 308.018C379.854 307.987 379.759 307.992 379.675 308.031C379.592 308.071 379.528 308.141 379.496 308.228Z" fill="white"/>
<path d="M321.548 346.391C324.779 346.391 327.399 343.778 327.399 340.556C327.399 337.333 324.779 334.721 321.548 334.721C318.317 334.721 315.698 337.333 315.698 340.556C315.698 343.778 318.317 346.391 321.548 346.391Z" fill="#FD6584"/>
<path d="M342.271 247.011C345.502 247.011 348.121 244.398 348.121 241.176C348.121 237.953 345.502 235.341 342.271 235.341C339.04 235.341 336.421 237.953 336.421 241.176C336.421 244.398 339.04 247.011 342.271 247.011Z" fill="#E6E6E6"/>
<path d="M233.412 85.1636C236.643 85.1636 239.262 82.5512 239.262 79.3287C239.262 76.1062 236.643 73.4939 233.412 73.4939C230.181 73.4939 227.562 76.1062 227.562 79.3287C227.562 82.5512 230.181 85.1636 233.412 85.1636Z" fill="#E6E6E6"/>
<path d="M110.818 303.152C110.818 304.637 110.867 306.123 110.971 307.596C111.081 309.356 111.271 311.104 111.529 312.84C112.394 318.685 114.047 324.386 116.444 329.79C116.566 330.058 116.689 330.327 116.811 330.596L116.995 331C117.056 331.134 117.124 331.269 117.185 331.397C117.271 331.574 117.351 331.745 117.436 331.917C117.541 332.131 117.645 332.344 117.755 332.558C117.767 332.583 117.78 332.613 117.798 332.644C117.89 332.827 117.976 333.005 118.074 333.188C118.092 333.228 118.112 333.267 118.135 333.304C118.239 333.512 118.35 333.726 118.46 333.934C118.582 334.154 118.699 334.38 118.821 334.6C119.116 335.144 119.422 335.682 119.735 336.22C119.826 336.379 119.918 336.538 120.016 336.696C120.102 336.843 120.188 336.99 120.28 337.136C120.341 337.234 120.403 337.338 120.464 337.436C120.562 337.601 120.66 337.76 120.764 337.925C120.991 338.286 121.224 338.646 121.451 339.007H121.457C121.561 339.172 121.671 339.337 121.781 339.496V339.502C122.106 339.991 122.443 340.48 122.78 340.963L122.783 340.963L122.785 340.965L122.786 340.967L122.787 340.969C123.056 341.36 123.338 341.739 123.614 342.118V342.124C123.798 342.363 123.975 342.607 124.159 342.845C124.306 343.041 124.46 343.243 124.613 343.438C124.643 343.481 124.68 343.518 124.711 343.561V343.567C124.754 343.622 124.797 343.671 124.84 343.726C125.489 344.557 126.159 345.37 126.85 346.164L126.96 346.293C126.997 346.336 127.04 346.378 127.076 346.427C127.138 346.494 127.193 346.562 127.254 346.629C127.309 346.696 127.371 346.763 127.432 346.831C131.031 350.874 135.112 354.464 139.585 357.521C140.179 357.931 140.786 358.328 141.392 358.713C141.546 358.811 141.699 358.909 141.852 359C141.895 359.031 141.944 359.061 141.987 359.092C142.073 359.141 142.152 359.19 142.238 359.245C142.318 359.294 142.398 359.343 142.483 359.391C142.808 359.593 143.139 359.789 143.47 359.984C143.55 360.033 143.635 360.082 143.721 360.131C143.801 360.174 143.887 360.223 143.973 360.272C143.973 360.278 143.973 360.278 143.979 360.278H143.985V360.284H143.991C144.402 360.522 144.818 360.754 145.241 360.981C145.468 361.103 145.701 361.231 145.934 361.347C146.461 361.635 146.994 361.91 147.527 362.173C147.717 362.264 147.913 362.356 148.103 362.454C148.262 362.527 148.422 362.607 148.581 362.68C148.63 362.704 148.673 362.723 148.716 362.747C148.851 362.808 148.979 362.869 149.114 362.93C149.261 362.998 149.408 363.065 149.549 363.132C149.715 363.206 149.874 363.279 150.04 363.346C150.653 363.621 151.271 363.884 151.89 364.135C154.109 365.041 156.376 365.825 158.681 366.482C158.785 366.512 158.895 366.543 159.006 366.573C159.992 366.848 160.985 367.099 161.984 367.325C163.731 367.729 165.494 368.059 167.273 368.315H167.285C167.5 368.346 167.708 368.377 167.922 368.407C167.941 368.407 167.959 368.413 167.984 368.413C167.984 368.419 167.984 368.419 167.99 368.413C168.223 368.444 168.462 368.474 168.695 368.505C168.711 368.51 168.727 368.512 168.744 368.511C168.964 368.542 169.191 368.566 169.412 368.59C169.651 368.615 169.89 368.639 170.129 368.664C170.313 368.682 170.496 368.701 170.68 368.719C170.696 368.724 170.713 368.726 170.729 368.725C170.895 368.737 171.06 368.756 171.226 368.768H171.25C171.391 368.78 171.538 368.792 171.679 368.804C173.389 368.939 175.105 369 176.845 369C178.727 369 180.596 368.927 182.441 368.768H182.459C182.857 368.731 183.25 368.694 183.642 368.658C183.746 368.646 183.844 368.639 183.948 368.627C183.967 368.627 183.991 368.621 184.01 368.621C184.04 368.615 184.071 368.615 184.108 368.609C184.124 368.609 184.141 368.607 184.157 368.603C184.292 368.59 184.426 368.572 184.567 368.56L185.027 368.505C185.18 368.487 185.333 368.462 185.487 368.444C185.523 368.438 185.554 368.438 185.591 368.432C185.701 368.419 185.811 368.401 185.922 368.383C185.977 368.377 186.032 368.37 186.081 368.364C186.191 368.346 186.296 368.334 186.406 368.315H186.412C189.775 367.833 193.094 367.087 196.34 366.084C196.512 366.029 196.683 365.981 196.855 365.926C196.861 365.926 196.867 365.919 196.873 365.919C196.922 365.901 196.977 365.889 197.026 365.871C197.486 365.724 197.94 365.571 198.393 365.412C199.018 365.204 199.637 364.978 200.256 364.746C200.422 364.679 200.587 364.618 200.753 364.55C201.09 364.422 201.421 364.287 201.751 364.153C202.315 363.927 202.879 363.688 203.437 363.444C203.958 363.212 204.472 362.979 204.987 362.735C205 362.729 205.018 362.729 205.03 362.717C205.147 362.662 205.263 362.607 205.373 362.552H205.379C208.202 361.201 210.924 359.65 213.524 357.912C214.358 357.356 215.179 356.782 215.988 356.189C216.637 355.706 217.275 355.217 217.912 354.716C221.056 352.221 223.967 349.447 226.608 346.427V346.421C226.798 346.213 226.976 345.999 227.16 345.785C227.191 345.755 227.215 345.724 227.24 345.7C227.356 345.559 227.466 345.425 227.583 345.29V345.284C227.736 345.107 227.889 344.924 228.036 344.74C228.073 344.697 228.104 344.661 228.134 344.624V344.618C228.257 344.471 228.373 344.325 228.496 344.172C228.557 344.098 228.612 344.025 228.674 343.952V343.946C229.035 343.493 229.385 343.041 229.734 342.576C229.826 342.454 229.918 342.326 230.016 342.198C230.457 341.605 230.886 340.999 231.303 340.394V340.388C231.462 340.162 231.615 339.93 231.775 339.704C231.928 339.471 232.081 339.239 232.234 339.007C232.387 338.762 232.547 338.524 232.7 338.28L232.718 338.243C232.872 338.011 233.025 337.766 233.172 337.528C233.288 337.332 233.405 337.143 233.521 336.953C233.595 336.825 233.674 336.696 233.748 336.562C233.777 336.521 233.803 336.478 233.828 336.434C233.999 336.134 234.171 335.835 234.342 335.535C234.545 335.187 234.741 334.832 234.937 334.478C235.01 334.331 235.09 334.184 235.17 334.038C235.2 333.989 235.225 333.94 235.249 333.891C235.341 333.72 235.433 333.543 235.519 333.365C235.611 333.194 235.703 333.017 235.795 332.84C235.881 332.668 235.973 332.491 236.058 332.314C236.126 332.179 236.187 332.045 236.255 331.911C236.259 331.9 236.265 331.889 236.273 331.88C236.304 331.813 236.334 331.752 236.359 331.691C236.366 331.681 236.372 331.671 236.377 331.66C236.445 331.525 236.506 331.385 236.573 331.25C236.659 331.073 236.739 330.89 236.824 330.713C236.88 330.59 236.941 330.462 236.996 330.334C237.076 330.156 237.162 329.979 237.235 329.796C237.321 329.612 237.401 329.429 237.48 329.239C237.503 329.194 237.524 329.147 237.542 329.099C237.584 329.013 237.615 328.928 237.652 328.842C237.75 328.616 237.848 328.384 237.94 328.158C238.05 327.901 238.154 327.638 238.252 327.381C238.35 327.143 238.442 326.898 238.534 326.654L238.571 326.568C239.999 322.817 241.082 318.944 241.807 314.998V314.992C242.216 312.738 242.508 310.466 242.683 308.183C242.689 308.054 242.702 307.932 242.708 307.81C242.818 306.263 242.867 304.711 242.867 303.152C242.867 302.461 242.855 301.777 242.836 301.092C242.409 286.775 237.29 272.992 228.263 261.851C228.067 261.607 227.871 261.362 227.669 261.118C227.466 260.873 227.258 260.635 227.056 260.396C220.338 252.55 211.865 246.387 202.32 242.405C192.776 238.423 182.427 236.734 172.108 237.473C161.789 238.213 151.788 241.36 142.913 246.661C134.037 251.963 126.534 259.27 121.009 267.994C120.709 268.471 120.409 268.954 120.121 269.437C119.827 269.926 119.545 270.415 119.263 270.91C113.711 280.752 110.802 291.859 110.818 303.152Z" fill="#F2F2F2"/>
<path d="M174.221 260.081C185.078 262.859 196.204 264.461 207.406 264.858C209.1 264.95 210.797 264.938 212.49 264.823C216.209 264.511 219.395 263.345 222.943 262.708C224.649 262.403 226.549 262.179 228.266 261.849C227.87 261.358 227.466 260.873 227.055 260.394C223.352 260.706 219.591 261.728 215.844 262.202C209.474 263.01 202.336 262.109 197.507 259.885C195.164 258.806 193.37 257.46 191.035 256.376C190.717 256.213 190.373 256.108 190.019 256.066C189.346 256.046 188.681 256.218 188.103 256.562C184.186 258.534 178.499 260.137 173.22 259.255C172.827 259.562 173.574 259.912 174.221 260.081Z" fill="white"/>
<path d="M150.863 267.021C150.815 267.012 150.766 267.006 150.718 266.997C150.921 266.872 151.112 266.728 151.289 266.569L150.863 267.021Z" fill="white"/>
<path d="M119.264 270.912C121.469 271.088 123.685 271.219 125.912 271.305C127.606 271.396 129.304 271.384 130.997 271.27C134.716 270.956 137.902 269.792 141.45 269.155C144.702 268.572 148.653 268.291 150.718 266.997C145.382 266.076 139.853 267.951 134.351 268.649C129.9 269.195 125.388 268.973 121.013 267.992C120.403 268.948 119.821 269.921 119.264 270.912Z" fill="white"/>
<path d="M145.934 361.347C146.461 361.635 146.994 361.91 147.527 362.173C147.717 362.264 147.913 362.356 148.103 362.454C148.263 362.527 148.422 362.607 148.581 362.68C148.63 362.704 148.673 362.723 148.716 362.747C148.851 362.808 148.98 362.869 149.114 362.931C149.261 362.998 149.409 363.065 149.55 363.132C149.715 363.206 149.874 363.279 150.04 363.346C150.653 363.621 151.272 363.884 151.891 364.135C154.109 365.042 156.376 365.825 158.681 366.482C158.785 366.512 158.895 366.543 159.006 366.573C159.992 366.849 160.985 367.099 161.984 367.325C163.731 367.729 165.494 368.059 167.273 368.315H167.285C167.5 368.346 167.708 368.377 167.923 368.407C167.941 368.407 167.959 368.413 167.984 368.413C167.984 368.419 167.984 368.419 167.99 368.413C168.223 368.444 168.462 368.474 168.695 368.505C168.711 368.51 168.727 368.512 168.744 368.511C168.964 368.542 169.191 368.566 169.412 368.591C169.651 368.615 169.89 368.639 170.129 368.664C170.313 368.682 170.497 368.701 170.68 368.719C170.696 368.724 170.713 368.726 170.729 368.725C170.895 368.737 171.06 368.756 171.226 368.768H171.25C171.391 368.78 171.538 368.792 171.679 368.805C173.389 368.939 175.105 369 176.846 369C178.727 369 180.596 368.927 182.441 368.768H182.459C182.858 368.731 183.25 368.694 183.642 368.658C183.746 368.646 183.844 368.639 183.948 368.627C183.967 368.627 183.991 368.621 184.01 368.621C184.04 368.615 184.071 368.615 184.108 368.609C184.124 368.61 184.141 368.607 184.157 368.603C184.292 368.591 184.426 368.572 184.567 368.56L185.027 368.505C185.18 368.487 185.333 368.462 185.487 368.444C185.523 368.438 185.554 368.438 185.591 368.432C185.701 368.419 185.811 368.401 185.922 368.383C185.977 368.377 186.032 368.371 186.081 368.364C186.191 368.346 186.296 368.334 186.406 368.315H186.412C189.775 367.833 193.095 367.087 196.34 366.085C196.512 366.03 196.683 365.981 196.855 365.926C196.064 362.245 194.435 358.795 192.094 355.842C189.753 352.89 186.762 350.513 183.354 348.897C184.197 348.096 184.78 347.061 185.027 345.926C185.186 345.195 185.199 344.439 185.064 343.703C184.93 342.966 184.65 342.264 184.243 341.635C183.447 340.417 182.2 339.564 180.774 339.264L171.692 337.369C170.23 337.085 168.714 337.387 167.475 338.211C166.235 339.036 165.372 340.314 165.073 341.77C164.98 342.216 164.939 342.671 164.95 343.127C156.205 348.933 149.911 354.954 145.934 361.347Z" fill="#6C63FF"/>
<path d="M172.751 333.791C183.201 333.791 191.673 325.342 191.673 314.919C191.673 304.496 183.201 296.047 172.751 296.047C162.301 296.047 153.829 304.496 153.829 314.919C153.829 325.342 162.301 333.791 172.751 333.791Z" fill="#FFB8B8"/>
<path d="M160.957 331.19C158.939 329.815 156.878 327.173 155.503 325.193C153.68 322.591 152.426 319.635 151.821 316.519C151.217 313.402 151.276 310.193 151.994 307.1C152.224 305.864 152.787 304.713 153.623 303.772C154.514 302.892 155.97 302.475 157.058 303.097C156.761 302.305 156.63 301.46 156.674 300.614C156.717 299.769 156.933 298.942 157.31 298.183C158.074 296.669 159.182 295.353 160.545 294.34C163.152 292.338 166.254 291.077 169.522 290.691C172.789 290.305 176.101 290.809 179.104 292.149C180.286 292.695 178.345 288.476 179.582 288.883C180.811 289.357 182.177 289.334 183.389 288.816C184.552 288.232 188.409 291.703 187.963 290.482C188.846 290.882 189.613 291.498 190.193 292.273C190.773 293.049 191.147 293.958 191.28 294.916C191.412 295.874 191.3 296.85 190.953 297.753C190.606 298.656 190.035 299.457 189.294 300.081C188.317 300.903 187.098 301.376 186.029 302.074C184.155 303.389 182.829 305.342 182.301 307.565C181.773 309.788 182.079 312.127 183.161 314.14C182.036 313.419 180.802 312.884 179.506 312.556C178.856 312.398 178.177 312.396 177.526 312.553C176.876 312.709 176.272 313.017 175.765 313.453C175.341 313.937 175.021 314.502 174.824 315.113C174.628 315.724 174.558 316.369 174.62 317.008C174.663 318.289 174.968 319.551 175.003 320.832C175.103 324.59 177.121 331.736 174.2 333.734C171.894 335.31 163.712 333.067 160.957 331.19Z" fill="#2F2E41"/>
<path d="M185.761 220.459C185.363 220.458 184.968 220.378 184.601 220.225C184.052 220.005 183.583 219.625 183.255 219.135C182.926 218.645 182.754 218.067 182.76 217.477V214.49C182.759 213.863 182.51 213.263 182.065 212.82C181.621 212.376 181.019 212.127 180.391 212.127C179.6 212.126 178.842 211.812 178.283 211.254C177.723 210.697 177.409 209.94 177.408 209.152V168.227C177.409 167.438 177.723 166.682 178.282 166.124C178.842 165.567 179.6 165.253 180.39 165.252H316.335C317.126 165.253 317.884 165.567 318.443 166.124C319.003 166.682 319.317 167.438 319.318 168.227V209.152C319.317 209.94 319.003 210.697 318.443 211.254C317.884 211.812 317.126 212.126 316.335 212.127H196.307C195.995 212.126 195.687 212.186 195.399 212.305C195.112 212.424 194.85 212.599 194.631 212.819L187.852 219.58C187.579 219.857 187.254 220.078 186.895 220.229C186.536 220.379 186.151 220.458 185.761 220.459Z" fill="white"/>
<path d="M185.761 221.07C185.282 221.069 184.808 220.974 184.366 220.789C183.705 220.524 183.139 220.066 182.743 219.475C182.347 218.884 182.14 218.188 182.147 217.477V214.49C182.147 214.026 181.961 213.58 181.632 213.252C181.303 212.923 180.856 212.738 180.391 212.738C179.437 212.737 178.523 212.358 177.849 211.686C177.175 211.014 176.796 210.102 176.795 209.152V168.227C176.796 167.276 177.175 166.365 177.849 165.692C178.523 165.02 179.437 164.642 180.39 164.641H316.335C317.288 164.642 318.202 165.02 318.876 165.692C319.55 166.365 319.93 167.276 319.931 168.227V209.152C319.93 210.102 319.551 211.014 318.876 211.686C318.202 212.358 317.289 212.737 316.335 212.738H196.307C196.076 212.737 195.847 212.782 195.634 212.87C195.42 212.958 195.227 213.088 195.064 213.251L188.285 220.012C187.955 220.346 187.562 220.612 187.129 220.793C186.696 220.975 186.231 221.069 185.761 221.07ZM180.39 165.863C179.762 165.864 179.16 166.113 178.716 166.556C178.271 166.999 178.022 167.6 178.021 168.227V209.152C178.021 209.778 178.271 210.379 178.716 210.822C179.16 211.265 179.762 211.515 180.391 211.515C181.181 211.516 181.939 211.83 182.498 212.388C183.057 212.946 183.372 213.702 183.373 214.49V217.477C183.373 217.945 183.512 218.401 183.772 218.79C184.033 219.179 184.403 219.481 184.836 219.66C185.269 219.839 185.745 219.886 186.205 219.795C186.664 219.703 187.087 219.478 187.418 219.148L194.197 212.387C194.474 212.11 194.802 211.89 195.164 211.74C195.526 211.591 195.915 211.514 196.307 211.515H316.335C316.964 211.515 317.566 211.265 318.01 210.822C318.455 210.379 318.704 209.778 318.705 209.152V168.227C318.704 167.6 318.454 166.999 318.01 166.556C317.566 166.113 316.964 165.864 316.335 165.863L180.39 165.863Z" fill="#3F3D56"/>
<path d="M304.653 183.78H194.416C193.995 183.78 193.591 183.613 193.293 183.316C192.996 183.019 192.828 182.617 192.828 182.197C192.828 181.777 192.996 181.374 193.293 181.077C193.591 180.78 193.995 180.613 194.416 180.613H304.653C305.074 180.613 305.478 180.78 305.776 181.077C306.074 181.374 306.241 181.777 306.241 182.197C306.241 182.617 306.074 183.019 305.776 183.316C305.478 183.613 305.074 183.78 304.653 183.78Z" fill="#6C63FF"/>
<path d="M304.451 190.508H194.416C193.995 190.508 193.591 190.341 193.293 190.044C192.996 189.747 192.828 189.344 192.828 188.924C192.828 188.504 192.996 188.101 193.293 187.804C193.591 187.507 193.995 187.341 194.416 187.341H304.451C304.872 187.341 305.276 187.507 305.573 187.804C305.871 188.101 306.039 188.504 306.039 188.924C306.039 189.344 305.871 189.747 305.573 190.044C305.276 190.341 304.872 190.508 304.451 190.508Z" fill="#E6E6E6"/>
<path d="M304.341 197.235H194.416C193.995 197.235 193.591 197.068 193.293 196.771C192.996 196.474 192.828 196.072 192.828 195.652C192.828 195.232 192.996 194.829 193.293 194.532C193.591 194.235 193.995 194.068 194.416 194.068H304.341C304.762 194.068 305.166 194.235 305.464 194.532C305.762 194.829 305.929 195.232 305.929 195.652C305.929 196.072 305.762 196.474 305.464 196.771C305.166 197.068 304.762 197.235 304.341 197.235Z" fill="#E6E6E6"/>
<path d="M478.254 158.901C478.254 160.387 478.205 161.872 478.101 163.345C477.991 165.105 477.801 166.853 477.543 168.589C476.678 174.434 475.025 180.136 472.628 185.539C472.506 185.808 472.383 186.077 472.261 186.346L472.077 186.749C472.016 186.883 471.948 187.018 471.887 187.146C471.801 187.324 471.721 187.495 471.636 187.666C471.531 187.88 471.427 188.094 471.317 188.308C471.305 188.332 471.292 188.363 471.274 188.393C471.182 188.577 471.096 188.754 470.998 188.937C470.98 188.977 470.96 189.016 470.937 189.053C470.833 189.261 470.722 189.475 470.612 189.683C470.49 189.903 470.373 190.129 470.251 190.349C469.956 190.893 469.65 191.431 469.337 191.969C469.246 192.128 469.154 192.287 469.056 192.446C468.97 192.592 468.884 192.739 468.792 192.886C468.731 192.984 468.669 193.088 468.608 193.185C468.51 193.35 468.412 193.509 468.308 193.674C468.081 194.035 467.848 194.396 467.621 194.756H467.615C467.511 194.921 467.401 195.086 467.291 195.245V195.251C466.966 195.74 466.629 196.229 466.292 196.712C466.291 196.712 466.29 196.712 466.289 196.713C466.288 196.713 466.288 196.713 466.287 196.714C466.287 196.714 466.286 196.715 466.286 196.716C466.286 196.717 466.285 196.717 466.285 196.718C466.016 197.109 465.734 197.488 465.458 197.867V197.873C465.274 198.112 465.097 198.356 464.913 198.595C464.766 198.79 464.612 198.992 464.459 199.188C464.429 199.23 464.392 199.267 464.361 199.31V199.316C464.318 199.371 464.275 199.42 464.232 199.475C463.583 200.306 462.913 201.119 462.222 201.914L462.112 202.042C462.075 202.085 462.032 202.128 461.996 202.176C461.934 202.244 461.879 202.311 461.818 202.378C461.763 202.445 461.701 202.513 461.64 202.58C458.041 206.624 453.96 210.214 449.487 213.27C448.893 213.68 448.286 214.077 447.68 214.462C447.526 214.56 447.373 214.658 447.22 214.75C447.177 214.78 447.128 214.811 447.085 214.841C446.999 214.89 446.92 214.939 446.834 214.994C446.754 215.043 446.674 215.092 446.589 215.141C446.264 215.342 445.933 215.538 445.602 215.734C445.522 215.782 445.436 215.831 445.351 215.88C445.271 215.923 445.185 215.972 445.099 216.021C445.099 216.027 445.099 216.027 445.093 216.027H445.087V216.033H445.081C444.67 216.272 444.254 216.504 443.831 216.73C443.604 216.852 443.371 216.981 443.138 217.097C442.611 217.384 442.078 217.659 441.545 217.922C441.355 218.013 441.159 218.105 440.969 218.203C440.81 218.276 440.65 218.356 440.491 218.429C440.442 218.454 440.399 218.472 440.356 218.496C440.221 218.557 440.092 218.619 439.958 218.68C439.811 218.747 439.664 218.814 439.523 218.881C439.357 218.955 439.198 219.028 439.032 219.095C438.419 219.37 437.8 219.633 437.182 219.884C434.963 220.791 432.696 221.574 430.391 222.231C430.287 222.262 430.177 222.292 430.066 222.323C429.08 222.598 428.087 222.848 427.088 223.074C425.341 223.478 423.578 223.808 421.799 224.065H421.787C421.572 224.095 421.364 224.126 421.149 224.156C421.131 224.156 421.113 224.163 421.088 224.163C421.088 224.169 421.088 224.169 421.082 224.163C420.849 224.193 420.61 224.224 420.377 224.254C420.361 224.259 420.345 224.261 420.328 224.26C420.108 224.291 419.881 224.315 419.66 224.34C419.421 224.364 419.182 224.389 418.943 224.413C418.759 224.431 418.576 224.45 418.392 224.468C418.376 224.474 418.359 224.476 418.343 224.474C418.177 224.486 418.012 224.505 417.846 224.517H417.822C417.681 224.529 417.534 224.541 417.393 224.554C415.683 224.688 413.967 224.749 412.226 224.749C410.345 224.749 408.476 224.676 406.631 224.517H406.613C406.214 224.48 405.822 224.444 405.43 224.407C405.326 224.395 405.228 224.389 405.124 224.376C405.105 224.376 405.081 224.37 405.062 224.37C405.032 224.364 405.001 224.364 404.964 224.358C404.948 224.359 404.931 224.357 404.915 224.352C404.78 224.34 404.646 224.321 404.505 224.309L404.045 224.254C403.892 224.236 403.739 224.211 403.585 224.193C403.549 224.187 403.518 224.187 403.481 224.181C403.371 224.169 403.261 224.15 403.15 224.132C403.095 224.126 403.04 224.12 402.991 224.114C402.881 224.095 402.776 224.083 402.666 224.065H402.66C399.297 223.582 395.977 222.836 392.732 221.834C392.56 221.779 392.389 221.73 392.217 221.675C392.211 221.675 392.205 221.669 392.199 221.669C392.15 221.65 392.095 221.638 392.046 221.62C391.586 221.473 391.132 221.32 390.679 221.161C390.054 220.954 389.435 220.727 388.816 220.495C388.65 220.428 388.485 220.367 388.319 220.3C387.982 220.171 387.651 220.037 387.321 219.902C386.757 219.676 386.193 219.438 385.635 219.193C385.114 218.961 384.599 218.729 384.085 218.484C384.072 218.478 384.054 218.478 384.042 218.466C383.925 218.411 383.809 218.356 383.699 218.301H383.692C380.87 216.95 378.148 215.4 375.548 213.662C374.714 213.105 373.893 212.531 373.084 211.938C372.435 211.455 371.797 210.966 371.16 210.465C368.016 207.97 365.105 205.196 362.464 202.177V202.17C362.274 201.963 362.096 201.749 361.912 201.535C361.881 201.504 361.857 201.474 361.832 201.449C361.716 201.309 361.606 201.174 361.489 201.04V201.034C361.336 200.856 361.183 200.673 361.036 200.49C360.999 200.447 360.968 200.41 360.938 200.373V200.367C360.815 200.221 360.699 200.074 360.576 199.921C360.515 199.848 360.46 199.774 360.398 199.701V199.695C360.037 199.243 359.687 198.79 359.338 198.326C359.246 198.204 359.154 198.075 359.056 197.947C358.615 197.354 358.186 196.749 357.769 196.144V196.138C357.61 195.911 357.457 195.679 357.297 195.453C357.144 195.221 356.991 194.988 356.838 194.756C356.684 194.512 356.525 194.273 356.372 194.029L356.354 193.992C356.2 193.76 356.047 193.515 355.9 193.277C355.784 193.081 355.667 192.892 355.551 192.702C355.477 192.574 355.397 192.446 355.324 192.311C355.295 192.27 355.269 192.227 355.244 192.183C355.073 191.883 354.901 191.584 354.729 191.284C354.527 190.936 354.331 190.581 354.135 190.227C354.061 190.08 353.982 189.934 353.902 189.787C353.872 189.738 353.847 189.689 353.822 189.64C353.731 189.469 353.639 189.292 353.553 189.115C353.461 188.943 353.369 188.766 353.277 188.589C353.191 188.418 353.099 188.24 353.014 188.063C352.946 187.929 352.885 187.794 352.817 187.66C352.813 187.649 352.807 187.639 352.799 187.629C352.768 187.562 352.738 187.501 352.713 187.44C352.706 187.43 352.7 187.42 352.695 187.409C352.627 187.275 352.566 187.134 352.499 187C352.413 186.822 352.333 186.639 352.247 186.462C352.192 186.34 352.131 186.211 352.076 186.083C351.996 185.906 351.91 185.728 351.837 185.545C351.751 185.362 351.671 185.178 351.592 184.989C351.569 184.943 351.548 184.896 351.53 184.848C351.488 184.763 351.457 184.677 351.42 184.591C351.322 184.365 351.224 184.133 351.132 183.907C351.022 183.65 350.918 183.387 350.82 183.131C350.722 182.892 350.63 182.648 350.538 182.403L350.501 182.318C349.073 178.567 347.99 174.694 347.265 170.747V170.741C346.856 168.488 346.564 166.215 346.389 163.932C346.383 163.803 346.37 163.681 346.364 163.559C346.254 162.013 346.205 160.46 346.205 158.901C346.205 158.211 346.217 157.526 346.235 156.841C346.663 142.524 351.782 128.741 360.809 117.6C361.005 117.356 361.201 117.111 361.403 116.867C361.606 116.622 361.814 116.384 362.016 116.146C368.734 108.299 377.207 102.136 386.752 98.1543C396.296 94.1726 406.645 92.4833 416.964 93.2226C427.283 93.9619 437.284 97.1091 446.159 102.411C455.035 107.712 462.538 115.019 468.063 123.743C468.363 124.22 468.663 124.703 468.951 125.186C469.245 125.675 469.527 126.164 469.809 126.659C475.361 136.502 478.27 147.608 478.254 158.901Z" fill="#F2F2F2"/>
<path d="M414.851 115.83C403.994 118.609 392.868 120.21 381.666 120.607C379.972 120.699 378.275 120.687 376.582 120.572C372.863 120.26 369.677 119.095 366.129 118.457C364.423 118.152 362.523 117.929 360.806 117.599C361.202 117.108 361.606 116.623 362.017 116.144C365.72 116.456 369.481 117.477 373.228 117.952C379.598 118.76 386.736 117.858 391.565 115.635C393.908 114.556 395.702 113.209 398.037 112.125C398.355 111.963 398.699 111.858 399.053 111.815C399.726 111.795 400.391 111.967 400.969 112.311C404.886 114.283 410.573 115.886 415.852 115.004C416.245 115.311 415.498 115.661 414.851 115.83Z" fill="white"/>
<path d="M438.209 122.77C438.257 122.762 438.306 122.755 438.354 122.747C438.151 122.621 437.96 122.478 437.783 122.318L438.209 122.77Z" fill="white"/>
<path d="M469.808 126.662C467.603 126.837 465.387 126.968 463.16 127.054C461.466 127.145 459.768 127.134 458.075 127.02C454.356 126.706 451.17 125.542 447.622 124.904C444.37 124.321 440.419 124.041 438.354 122.747C443.69 121.825 449.219 123.701 454.721 124.399C459.172 124.945 463.684 124.722 468.059 123.742C468.669 124.698 469.251 125.671 469.808 126.662Z" fill="white"/>
<path d="M404.783 187.716C415.735 187.716 424.614 178.663 424.614 167.496C424.614 156.329 415.735 147.277 404.783 147.277C393.831 147.277 384.953 156.329 384.953 167.496C384.953 178.663 393.831 187.716 404.783 187.716Z" fill="#FFB6B6"/>
<path d="M443.138 217.097C442.611 217.384 442.078 217.659 441.545 217.922C441.355 218.014 441.159 218.105 440.969 218.203C440.809 218.276 440.65 218.356 440.491 218.429C440.442 218.454 440.399 218.472 440.356 218.496C440.221 218.558 440.092 218.619 439.958 218.68C439.811 218.747 439.663 218.814 439.522 218.881C439.357 218.955 439.198 219.028 439.032 219.095C438.419 219.37 437.8 219.633 437.181 219.884C434.963 220.791 432.696 221.574 430.391 222.231C430.287 222.262 430.177 222.292 430.066 222.323C429.08 222.598 428.087 222.848 427.088 223.075C425.341 223.478 423.578 223.808 421.799 224.065H421.787C421.572 224.095 421.364 224.126 421.149 224.156C421.131 224.156 421.113 224.163 421.088 224.163C421.088 224.169 421.088 224.169 421.082 224.163C420.849 224.193 420.61 224.224 420.377 224.254C420.361 224.259 420.345 224.261 420.328 224.26C420.108 224.291 419.881 224.315 419.66 224.34C419.421 224.364 419.182 224.389 418.943 224.413C418.759 224.431 418.575 224.45 418.392 224.468C418.376 224.474 418.359 224.476 418.343 224.474C418.177 224.486 418.012 224.505 417.846 224.517H417.822C417.681 224.529 417.534 224.542 417.393 224.554C415.683 224.688 413.967 224.749 412.226 224.749C410.345 224.749 408.476 224.676 406.631 224.517H406.613C406.214 224.48 405.822 224.444 405.43 224.407C405.326 224.395 405.228 224.389 405.124 224.376C405.105 224.376 405.081 224.37 405.062 224.37C405.032 224.364 405.001 224.364 404.964 224.358C404.948 224.359 404.931 224.357 404.915 224.352C404.78 224.34 404.646 224.321 404.505 224.309L404.045 224.254C403.892 224.236 403.738 224.211 403.585 224.193C403.549 224.187 403.518 224.187 403.481 224.181C403.371 224.169 403.26 224.15 403.15 224.132C403.095 224.126 403.04 224.12 402.991 224.114C402.881 224.095 402.776 224.083 402.666 224.065H402.66C399.297 223.582 395.977 222.836 392.732 221.834C392.56 221.779 392.389 221.73 392.217 221.675C393.008 217.994 394.637 214.544 396.978 211.592C399.319 208.639 402.31 206.263 405.718 204.646C404.875 203.845 404.292 202.81 404.045 201.675C403.886 200.944 403.873 200.188 404.008 199.452C404.142 198.715 404.422 198.013 404.829 197.385C405.625 196.167 406.872 195.314 408.298 195.013L417.38 193.118C418.842 192.834 420.358 193.137 421.597 193.961C422.837 194.785 423.7 196.064 423.999 197.519C424.092 197.965 424.133 198.42 424.122 198.876C432.867 204.683 439.161 210.703 443.138 217.097Z" fill="#6C63FF"/>
<path d="M457.848 158.727C454.477 154.807 452.875 149.605 450.18 145.153C447.485 140.701 442.796 136.716 437.842 137.753C434.427 138.467 431.788 141.472 430.452 144.823C429.116 148.174 428.866 151.869 428.631 155.489C428.714 148.05 423.8 140.838 417.03 138.464C410.261 136.09 402.16 138.738 397.907 144.715C396.05 142.999 393.627 142.022 391.097 141.969C388.567 141.916 386.105 142.79 384.178 144.427C380.373 147.819 379.531 154.274 382.329 158.6C385.127 162.926 391.187 164.538 395.634 162.138L397.206 163.581C396.321 166.668 398.037 170.314 400.922 171.476C403.261 172.418 406.563 172.261 407.439 174.71C408.05 176.42 406.907 178.246 405.691 179.561C404.475 180.875 403.031 182.233 402.885 184.052C402.664 186.797 405.508 188.719 408.093 189.298C414.327 190.695 421.243 187.816 424.836 182.329C424.905 182.223 424.98 182.117 425.062 182.011C427.078 179.44 428.546 176.486 429.379 173.33C430.211 170.174 430.39 166.881 429.904 163.654C429.702 162.386 429.905 161.442 430.782 161.142C434.571 159.844 445.186 162.568 448.399 165.031C451.612 167.493 454.185 170.752 457.279 173.373C460.374 175.994 464.317 178.016 468.247 177.302C471.393 176.73 474.071 174.452 475.871 171.703C477.672 168.955 478.708 165.751 479.637 162.567C472.678 166.576 463.154 164.898 457.848 158.727Z" fill="#2F2E41"/>
<path d="M50.7591 117.949C50.7591 119.434 50.8081 120.919 50.9123 122.392C51.0226 124.153 51.2126 125.901 51.47 127.637C52.335 133.482 53.9883 139.183 56.385 144.586C56.5075 144.855 56.6301 145.124 56.7527 145.393L56.9366 145.796C56.9978 145.931 57.0652 146.065 57.1265 146.194C57.2123 146.371 57.292 146.542 57.3778 146.713C57.482 146.927 57.5862 147.141 57.6965 147.355C57.7087 147.38 57.721 147.41 57.7394 147.441C57.8313 147.624 57.9171 147.801 58.0152 147.985C58.0332 148.025 58.0537 148.063 58.0765 148.101C58.1806 148.309 58.2909 148.523 58.4013 148.73C58.5238 148.95 58.6403 149.177 58.7628 149.397C59.057 149.941 59.3634 150.479 59.676 151.016C59.7679 151.175 59.8598 151.334 59.9579 151.493C60.0437 151.64 60.1295 151.787 60.2214 151.933C60.2827 152.031 60.344 152.135 60.4053 152.233C60.5033 152.398 60.6014 152.557 60.7055 152.722C60.9323 153.082 61.1652 153.443 61.3919 153.804H61.3981C61.5022 153.969 61.6125 154.134 61.7229 154.293V154.299C62.0477 154.788 62.3847 155.277 62.7218 155.76C62.7226 155.76 62.7234 155.76 62.7242 155.76C62.7249 155.76 62.7256 155.761 62.7262 155.761C62.7267 155.762 62.7272 155.763 62.7275 155.763C62.7278 155.764 62.728 155.765 62.7279 155.766C62.9976 156.157 63.2795 156.536 63.5553 156.915V156.921C63.7391 157.159 63.9168 157.404 64.1007 157.642C64.2478 157.838 64.401 158.039 64.5542 158.235C64.5848 158.278 64.6216 158.314 64.6523 158.357V158.363C64.6952 158.418 64.738 158.467 64.7809 158.522C65.4306 159.354 66.1006 160.167 66.7911 160.961L66.9014 161.089C66.9382 161.132 66.9811 161.175 67.0178 161.224C67.0791 161.291 67.1343 161.358 67.1956 161.426C67.2507 161.493 67.312 161.56 67.3733 161.627C70.9726 165.671 75.0537 169.261 79.526 172.318C80.1204 172.727 80.7271 173.125 81.3339 173.51C81.4871 173.607 81.6403 173.705 81.7935 173.797C81.8364 173.828 81.8854 173.858 81.9283 173.889C82.0141 173.938 82.0938 173.986 82.1796 174.041C82.2593 174.09 82.3389 174.139 82.4247 174.188C82.7495 174.39 83.0805 174.585 83.4114 174.781C83.4911 174.83 83.5769 174.879 83.6627 174.928C83.7423 174.971 83.8281 175.019 83.9139 175.068C83.9139 175.074 83.9139 175.074 83.9201 175.074H83.9262V175.081H83.9323C84.3429 175.319 84.7597 175.551 85.1825 175.777C85.4093 175.9 85.6422 176.028 85.875 176.144C86.4021 176.431 86.9353 176.706 87.4684 176.969C87.6584 177.061 87.8545 177.153 88.0445 177.25C88.2038 177.324 88.3632 177.403 88.5225 177.477C88.5715 177.501 88.6144 177.519 88.6573 177.544C88.7922 177.605 88.9209 177.666 89.0557 177.727C89.2028 177.794 89.3498 177.862 89.4908 177.929C89.6563 178.002 89.8156 178.076 89.9811 178.143C90.5939 178.418 91.2129 178.681 91.8319 178.931C94.0501 179.838 96.317 180.622 98.6222 181.278C98.7264 181.309 98.8367 181.34 98.947 181.37C99.9337 181.645 100.927 181.896 101.925 182.122C103.672 182.525 105.435 182.855 107.214 183.112H107.227C107.441 183.143 107.649 183.173 107.864 183.204C107.882 183.204 107.901 183.21 107.925 183.21C107.925 183.216 107.925 183.216 107.931 183.21C108.164 183.241 108.403 183.271 108.636 183.302C108.652 183.306 108.669 183.308 108.685 183.308C108.906 183.338 109.132 183.363 109.353 183.387C109.592 183.412 109.831 183.436 110.07 183.461C110.254 183.479 110.438 183.497 110.622 183.516C110.637 183.521 110.654 183.523 110.671 183.522C110.836 183.534 111.002 183.552 111.167 183.564H111.192C111.333 183.577 111.48 183.589 111.621 183.601C113.33 183.736 115.046 183.797 116.787 183.797C118.668 183.797 120.537 183.723 122.382 183.564H122.401C122.799 183.528 123.191 183.491 123.583 183.454C123.688 183.442 123.786 183.436 123.89 183.424C123.908 183.424 123.933 183.418 123.951 183.418C123.982 183.412 124.012 183.412 124.049 183.406C124.066 183.406 124.082 183.404 124.098 183.399C124.233 183.387 124.368 183.369 124.509 183.357L124.968 183.302C125.122 183.283 125.275 183.259 125.428 183.241C125.465 183.234 125.495 183.234 125.532 183.228C125.642 183.216 125.753 183.198 125.863 183.179C125.918 183.173 125.973 183.167 126.022 183.161C126.133 183.143 126.237 183.131 126.347 183.112H126.353C129.716 182.629 133.036 181.883 136.281 180.881C136.453 180.826 136.625 180.777 136.796 180.722C136.802 180.722 136.809 180.716 136.815 180.716C136.864 180.698 136.919 180.686 136.968 180.667C137.427 180.521 137.881 180.368 138.334 180.209C138.96 180.001 139.579 179.775 140.198 179.543C140.363 179.475 140.528 179.414 140.694 179.347C141.031 179.219 141.362 179.084 141.693 178.95C142.257 178.724 142.82 178.485 143.378 178.241C143.899 178.008 144.414 177.776 144.929 177.532C144.941 177.526 144.959 177.526 144.972 177.513C145.088 177.458 145.204 177.403 145.315 177.348H145.321C148.143 175.997 150.865 174.447 153.466 172.709C154.299 172.153 155.12 171.578 155.929 170.985C156.579 170.502 157.216 170.013 157.854 169.512C160.998 167.018 163.909 164.244 166.55 161.224V161.218C166.74 161.01 166.917 160.796 167.101 160.582C167.132 160.552 167.157 160.521 167.181 160.497C167.297 160.356 167.408 160.222 167.524 160.087V160.081C167.677 159.904 167.831 159.72 167.978 159.537C168.015 159.494 168.045 159.458 168.076 159.421V159.415C168.198 159.268 168.315 159.121 168.437 158.969C168.499 158.895 168.554 158.822 168.615 158.748V158.742C168.977 158.29 169.326 157.838 169.675 157.373C169.767 157.251 169.859 157.123 169.957 156.994C170.398 156.401 170.827 155.796 171.244 155.191V155.185C171.404 154.959 171.557 154.727 171.716 154.5C171.869 154.268 172.022 154.036 172.176 153.804C172.329 153.559 172.488 153.321 172.641 153.076L172.66 153.04C172.813 152.807 172.966 152.563 173.113 152.324C173.23 152.129 173.346 151.939 173.463 151.75C173.536 151.622 173.616 151.493 173.689 151.359C173.718 151.317 173.745 151.274 173.769 151.23C173.941 150.931 174.112 150.631 174.284 150.332C174.486 149.983 174.682 149.629 174.878 149.274C174.952 149.128 175.032 148.981 175.111 148.834C175.142 148.785 175.166 148.737 175.191 148.688C175.283 148.517 175.375 148.339 175.461 148.162C175.552 147.991 175.644 147.814 175.736 147.636C175.822 147.465 175.914 147.288 176 147.111C176.067 146.976 176.129 146.842 176.196 146.707C176.201 146.696 176.207 146.686 176.214 146.677C176.245 146.609 176.276 146.548 176.3 146.487C176.308 146.478 176.314 146.468 176.319 146.457C176.386 146.322 176.447 146.182 176.515 146.047C176.6 145.87 176.68 145.687 176.766 145.509C176.821 145.387 176.882 145.259 176.938 145.13C177.017 144.953 177.103 144.776 177.176 144.592C177.262 144.409 177.342 144.226 177.422 144.036C177.445 143.99 177.465 143.944 177.483 143.896C177.526 143.81 177.556 143.724 177.593 143.639C177.691 143.413 177.789 143.18 177.881 142.954C177.992 142.698 178.096 142.435 178.194 142.178C178.292 141.94 178.384 141.695 178.476 141.451L178.513 141.365C179.94 137.614 181.023 133.741 181.748 129.794V129.788C182.157 127.535 182.45 125.262 182.625 122.979C182.631 122.851 182.643 122.729 182.649 122.606C182.76 121.06 182.809 119.507 182.809 117.949C182.809 117.258 182.796 116.574 182.778 115.889C182.35 101.572 177.231 87.7884 168.204 76.6479C168.008 76.4034 167.812 76.1589 167.61 75.9144C167.408 75.6699 167.199 75.4315 166.997 75.1931C160.279 67.3462 151.806 61.1835 142.262 57.2018C132.717 53.2201 122.368 51.5308 112.049 52.2701C101.73 53.0094 91.7297 56.1566 82.8539 61.458C73.9781 66.7594 66.4754 74.0667 60.9507 82.7907C60.6504 83.2675 60.3501 83.7504 60.0621 84.2333C59.7679 84.7223 59.486 85.2112 59.2041 85.7063C53.6521 95.5491 50.7432 106.655 50.7591 117.949Z" fill="#F2F2F2"/>
<path d="M114.163 74.8775C125.019 77.656 136.145 79.2576 147.347 79.6544C149.041 79.7465 150.739 79.735 152.431 79.62C156.151 79.308 159.336 78.142 162.885 77.5049C164.59 77.1995 166.49 76.9761 168.208 76.6461C167.811 76.1551 167.407 75.6701 166.996 75.1911C163.293 75.5031 159.532 76.5246 155.785 76.9991C149.415 77.8071 142.277 76.9055 137.448 74.6821C135.106 73.6032 133.311 72.2566 130.976 71.1728C130.659 71.0103 130.315 70.9052 129.96 70.8625C129.287 70.8423 128.622 71.0144 128.044 71.3584C124.127 73.3306 118.44 74.9333 113.162 74.0515C112.768 74.3586 113.515 74.7083 114.163 74.8775Z" fill="white"/>
<path d="M90.8042 81.818C90.756 81.8092 90.7077 81.8023 90.6594 81.794C90.8622 81.6687 91.0531 81.5252 91.2299 81.3654L90.8042 81.818Z" fill="white"/>
<path d="M59.2053 85.709C61.4099 85.8847 63.6261 86.0155 65.8537 86.1015C67.5476 86.1927 69.2455 86.1812 70.938 86.067C74.6573 85.7533 77.8433 84.5891 81.3914 83.9519C84.6431 83.369 88.5946 83.0882 90.6593 81.7942C85.3231 80.8729 79.7943 82.7482 74.2918 83.4462C69.841 83.992 65.3291 83.7698 60.9539 82.7893C60.3447 83.745 59.7618 84.7183 59.2053 85.709Z" fill="white"/>
<path d="M85.875 176.144C86.402 176.431 86.9352 176.707 87.4684 176.969C87.6584 177.061 87.8545 177.153 88.0445 177.251C88.2038 177.324 88.3631 177.403 88.5225 177.477C88.5715 177.501 88.6144 177.519 88.6573 177.544C88.7921 177.605 88.9208 177.666 89.0557 177.727C89.2027 177.795 89.3498 177.862 89.4908 177.929C89.6563 178.002 89.8156 178.076 89.9811 178.143C90.5939 178.418 91.2129 178.681 91.8318 178.931C94.0501 179.838 96.317 180.622 98.6222 181.279C98.7263 181.309 98.8367 181.34 98.947 181.37C99.9337 181.645 100.926 181.896 101.925 182.122C103.672 182.525 105.435 182.856 107.214 183.112H107.227C107.441 183.143 107.649 183.173 107.864 183.204C107.882 183.204 107.901 183.21 107.925 183.21C107.925 183.216 107.925 183.216 107.931 183.21C108.164 183.241 108.403 183.271 108.636 183.302C108.652 183.306 108.669 183.308 108.685 183.308C108.906 183.338 109.132 183.363 109.353 183.387C109.592 183.412 109.831 183.436 110.07 183.461C110.254 183.479 110.438 183.497 110.622 183.516C110.637 183.521 110.654 183.523 110.671 183.522C110.836 183.534 111.002 183.552 111.167 183.565H111.192C111.333 183.577 111.48 183.589 111.621 183.601C113.33 183.736 115.046 183.797 116.787 183.797C118.668 183.797 120.537 183.723 122.382 183.565H122.401C122.799 183.528 123.191 183.491 123.583 183.455C123.687 183.442 123.786 183.436 123.89 183.424C123.908 183.424 123.933 183.418 123.951 183.418C123.982 183.412 124.012 183.412 124.049 183.406C124.066 183.406 124.082 183.404 124.098 183.399C124.233 183.387 124.368 183.369 124.509 183.357L124.968 183.302C125.122 183.283 125.275 183.259 125.428 183.241C125.465 183.234 125.495 183.234 125.532 183.228C125.642 183.216 125.753 183.198 125.863 183.179C125.918 183.173 125.973 183.167 126.022 183.161C126.133 183.143 126.237 183.131 126.347 183.112H126.353C129.716 182.629 133.036 181.883 136.281 180.881C136.453 180.826 136.625 180.777 136.796 180.722C136.005 177.042 134.376 173.592 132.035 170.639C129.694 167.686 126.704 165.31 123.295 163.693C124.138 162.892 124.721 161.858 124.968 160.723C125.127 159.991 125.14 159.236 125.005 158.499C124.871 157.763 124.592 157.06 124.184 156.432C123.389 155.214 122.141 154.361 120.715 154.06L111.633 152.166C110.171 151.881 108.655 152.184 107.416 153.008C106.176 153.832 105.313 155.111 105.014 156.566C104.921 157.013 104.88 157.468 104.892 157.923C96.1463 163.73 89.8523 169.751 85.875 176.144Z" fill="#6C63FF"/>
<path d="M121.805 146.051C134.015 146.051 143.912 136.179 143.912 124.002C143.912 111.825 134.015 101.953 121.805 101.953C109.596 101.953 99.698 111.825 99.698 124.002C99.698 136.179 109.596 146.051 121.805 146.051Z" fill="#9E616A"/>
<path d="M118.664 144.872C113.129 146.363 107.028 144.381 102.708 140.621C98.3892 136.862 95.6874 131.534 94.1307 126.031C92.9905 122.001 92.4499 117.527 94.2491 113.744C96.0483 109.96 100.891 107.408 104.626 109.319C102.322 106.641 103.473 102.212 106.165 99.9207C108.856 97.6298 112.552 96.9729 116.072 96.6139C121.181 96.0928 126.458 96.0345 131.319 97.6852C136.18 99.3359 140.597 102.945 142.119 107.837C143.673 108.558 145.423 108.745 147.095 108.369C148.767 107.992 150.266 107.073 151.358 105.756C151.64 107.269 151.414 108.833 150.715 110.205C150.016 111.577 148.883 112.681 147.491 113.346L154.94 110.937C156.221 113.642 153.976 116.988 151.106 117.854C148.236 118.72 145.137 117.774 142.413 116.523C139.69 115.272 137.05 113.69 134.092 113.202C131.133 112.714 127.658 113.662 126.289 116.323C125.572 117.717 125.535 119.35 125.119 120.86C124.703 122.371 123.649 123.937 122.083 124.06C121.094 124.139 120.125 123.613 119.139 123.721C118.533 123.839 117.976 124.132 117.534 124.562C117.093 124.992 116.787 125.541 116.654 126.142C116.408 127.348 116.405 128.59 116.645 129.797L118.537 144.221L118.664 144.872Z" fill="#2F2E41"/>
</g>
<defs>
<clipPath id="clip0_252_1272">
<rect width="496" height="385" fill="white" transform="translate(0 -16)"/>
</clipPath>
</defs>
</svg>
