<svg width="264" height="264" viewBox="0 0 264 264" fill="none" xmlns="http://www.w3.org/2000/svg">
<g clip-path="url(#clip0_252_1273)">
<path d="M264 132C264.016 146.434 261.661 160.773 257.029 174.443C256.763 175.224 256.491 176.003 256.213 176.778C251.307 190.344 244.214 203.015 235.214 214.289C232.527 217.659 229.68 220.89 226.673 223.982C223.666 227.079 220.509 230.025 217.202 232.82C198.759 248.46 176.355 258.704 152.46 262.422H152.456C149.41 262.895 146.334 263.263 143.228 263.527C139.529 263.84 135.787 263.997 132 264C114.39 264.023 96.954 260.511 80.7261 253.672C64.4981 246.833 49.808 236.806 37.5262 224.185C36.6631 223.303 35.8131 222.407 34.976 221.498C32.8906 219.237 30.8845 216.906 28.9579 214.504C27.8761 213.153 26.8204 211.781 25.7907 210.388C19.4481 201.819 14.171 192.511 10.0757 182.668C8.32919 178.476 6.80402 174.195 5.50643 169.843C5.4127 169.534 5.32288 169.226 5.23305 168.917C5.03779 168.253 4.84904 167.585 4.66679 166.914C1.56015 155.536 -0.00941473 143.794 -8.06839e-05 132C-8.06839e-05 59.0993 59.0992 0 132 0C204.901 0 264 59.0993 264 132Z" fill="#F2F2F2"/>
<path d="M55.982 78.9C55.7777 80.1408 55.8478 81.4113 56.1876 82.622C56.5274 83.8328 57.1285 84.9543 57.9486 85.9076C58.7687 86.8609 59.7879 87.6227 60.9343 88.1395C62.0807 88.6564 63.3265 88.9155 64.5839 88.8988L85.6548 150.21L99.0996 140.97L73.1453 79.5633C72.9772 77.4528 72.0407 75.4773 70.5134 74.0112C68.986 72.545 66.9739 71.69 64.8583 71.6083C62.7427 71.5265 60.6706 72.2236 59.0347 73.5675C57.3987 74.9114 56.3126 76.8088 55.982 78.9Z" fill="#A0616A"/>
<path d="M165.959 99.6444C156.602 110.29 133.529 129.051 114.522 141.97C110.413 144.763 106.493 147.278 102.943 149.383C100.545 150.804 98.3148 152.034 96.3074 153.038C94.9601 153.709 93.4888 154.095 91.9856 154.171C90.4823 154.247 88.9795 154.012 87.5714 153.48C86.1632 152.949 84.88 152.132 83.802 151.082C82.7241 150.031 81.8747 148.769 81.3071 147.375L68.1461 115.535L72.6997 112.516L83.9275 105.069L86.4777 103.382L97.0065 128.458L108.109 119.546L115.002 114.012L146.424 88.7954L149.135 87.9908L155.457 94.1613L159.929 98.5274L164.135 99.2577C164.764 99.3671 165.373 99.496 165.959 99.6444Z" fill="#6C63FF"/>
<path d="M249.91 187.128C250.562 187.956 251.237 188.78 251.913 189.608C249.586 194.387 246.97 199.02 244.079 203.48C243.864 203.328 243.649 203.175 243.435 203.023C243.401 203.005 243.368 202.984 243.337 202.961C242.536 202.39 241.732 201.828 240.931 201.258V201.254C240.271 199.006 239.902 196.683 239.834 194.342C240.247 194.247 240.621 194.027 240.905 193.713C241.189 193.399 241.369 193.005 241.421 192.584C241.474 192.164 241.396 191.738 241.198 191.363C241 190.989 240.691 190.684 240.314 190.491C240.209 190.307 240.135 190.175 240.029 189.987C240.033 189.94 240.041 189.889 240.045 189.843C240.658 184.965 246.875 183.262 249.91 187.128Z" fill="white"/>
<path d="M256.92 170.414C257.388 171.702 257.815 173.006 258.201 174.323C257.935 175.104 257.663 175.882 257.384 176.658C257.279 176.248 257.17 175.838 257.056 175.428C256.421 173.148 255.658 170.906 254.772 168.711C254.045 166.911 253.241 165.148 252.358 163.423C247.559 154.053 240.604 145.955 232.066 139.796C228.538 138.98 225.344 137.102 222.916 134.414C222.04 133.449 221.308 132.362 220.741 131.189C221.1 131.138 221.459 131.068 221.811 130.993C221.92 130.97 222.033 130.943 222.143 130.919L222.186 130.911C222.57 130.822 222.92 130.624 223.194 130.341C223.469 130.057 223.655 129.7 223.732 129.313C223.808 128.926 223.771 128.526 223.625 128.159C223.479 127.793 223.23 127.476 222.908 127.248C222.709 127.104 222.506 126.963 222.307 126.822C222.002 126.6 221.694 126.389 221.385 126.17C221.353 126.15 221.321 126.128 221.291 126.104C220.94 125.854 220.588 125.612 220.241 125.358C220.51 124.488 220.977 123.691 221.604 123.03C223.787 120.777 227.684 120.828 230.231 122.663C232.781 124.499 234.062 127.713 234.226 130.845C234.37 133.528 233.792 136.184 233.031 138.773C233.222 138.913 233.421 139.046 233.613 139.191C237.129 141.796 240.38 144.741 243.321 147.982C241.622 143.951 241.005 138.695 241.447 135.074C241.951 130.95 243.954 127.033 245.594 123.132C247.559 118.446 254.26 118.383 256.15 123.101C256.17 123.148 256.189 123.191 256.205 123.237C255.889 123.554 255.584 123.882 255.291 124.222C254.923 124.65 254.694 125.179 254.632 125.74C254.57 126.301 254.679 126.867 254.944 127.365C255.209 127.863 255.619 128.27 256.119 128.531C256.62 128.792 257.187 128.896 257.748 128.83L257.806 128.822C258.05 130.214 258.188 131.623 258.22 133.036C258.269 136.989 257.5 140.91 255.962 144.552C254.425 148.195 252.151 151.48 249.285 154.203C249.097 154.378 248.914 154.55 248.722 154.718C250.532 157.291 252.156 159.988 253.585 162.791C254.852 165.26 255.966 167.806 256.92 170.414Z" fill="white"/>
<path d="M181.67 133.777L180.491 214.777L85.2163 212.043L100.431 178.458C100.322 177.38 107.11 169.815 107.07 168.694C106.953 165.41 109.406 162.368 109.804 158.931C110.617 151.843 105.965 125.076 108.109 119.546C109.023 117.076 110.193 114.71 111.601 112.485C112.819 110.642 114.069 109.4 115.264 108.951L118.786 100.742L121.911 96.0554L146.424 88.7954L149.135 87.9908L155.457 94.1613L159.929 98.5274L164.135 99.2577C164.764 99.3671 165.373 99.4959 165.959 99.6443C168.78 100.295 171.41 101.598 173.637 103.448C180.979 109.685 181.834 121.417 181.67 133.777Z" fill="#6C63FF"/>
<path d="M236.386 214.169C233.699 217.539 230.852 220.77 227.845 223.862L217.542 223.87L162.137 223.932L152.163 223.944L145.532 223.952L135.667 223.96L128.079 223.967L114.063 223.983L105.795 223.995L88.3854 224.01L80.0749 224.022L57.0451 224.046L42.5798 224.061L38.6979 224.065C37.8348 223.182 36.9848 222.287 36.1477 221.378C34.0623 219.117 32.0563 216.786 30.1296 214.384L38.1668 214.376L43.6421 214.372L56.3188 214.356L80.7817 214.333L89.0493 214.325L92.3922 214.321H92.404L95.0283 214.317L96.2038 214.313L99.2148 214.31H100.488L109.416 214.302L128.673 214.278L137.147 214.27L145.263 214.263L152.87 214.255L163.786 214.243L222.084 214.185L236.386 214.169Z" fill="#CCCCCC"/>
<path d="M104.571 92.5453L104.55 92.5473C103.423 92.6521 102.301 92.3051 101.43 91.5826C100.56 90.8601 100.012 89.8212 99.9067 88.6946L97.6858 64.9895C97.2838 60.7428 97.7398 56.4587 99.0266 52.3919C101.549 44.4545 107.037 37.7966 114.347 33.8058C118.122 31.7506 122.273 30.481 126.552 30.0734C144.055 28.4058 150.452 32.0512 161.264 58.7468C172.076 85.4423 163.488 82.488 163.488 82.488C163.542 83.0593 163.481 83.6357 163.308 84.1827C162.967 85.25 162.228 86.1445 161.244 86.6794C160.738 86.9533 160.183 87.1228 159.612 87.178C138.919 92.4379 118.039 97.9746 104.568 92.5456L104.571 92.5453Z" fill="#2F2E41"/>
<path d="M143.086 52.5348C145.684 56.3781 147.084 60.9049 147.11 65.5436C147.137 70.1823 145.788 74.7247 143.234 78.5972C140.68 82.4697 137.036 85.4986 132.762 87.3013C128.488 89.104 123.775 89.5996 119.22 88.7256C116.204 88.1568 113.331 86.9953 110.768 85.3083C108.204 83.6213 106.001 81.4424 104.285 78.8978C101.693 75.0558 100.297 70.5323 100.272 65.8977C100.247 61.2632 101.595 56.725 104.145 52.8554C106.696 48.9858 110.335 45.958 114.605 44.1539C118.874 42.3497 123.581 41.8499 128.134 42.7175C131.152 43.2829 134.028 44.4419 136.595 46.1273C139.161 47.8127 141.368 49.9909 143.086 52.5357L143.086 52.5348Z" fill="#9E616A"/>
<path d="M90.3481 67.623C90.0304 64.2644 90.3911 60.8762 91.4087 57.6598C91.6447 49.7917 93.9275 42.665 103.524 42.9642C106.491 41.3504 109.751 40.3499 113.112 40.022L117.855 39.5537C117.908 39.5484 117.961 39.5433 118.014 39.5383C121.3 39.2325 124.614 39.5769 127.766 40.5517C130.919 41.5265 133.848 43.1127 136.388 45.2197C138.927 47.3268 141.027 49.9133 142.567 52.8318C144.106 55.7502 145.056 58.9434 145.362 62.2289L145.407 62.7037L135.373 63.6846L131.055 54.4439L131.268 64.0879L126.086 64.5965L123.909 59.9343L124.015 64.7967C116.321 71.5731 104.654 71.9283 90.3971 68.0983L90.3481 67.623Z" fill="#2F2E41"/>
<path d="M122.442 90.1175C122.356 90.8985 122.492 91.6879 122.833 92.3957C123.005 92.7583 123.226 93.0949 123.492 93.3959C123.719 93.6523 123.975 93.8809 124.256 94.077C125.087 94.6557 126.097 94.9193 127.105 94.8204C127.168 94.814 127.231 94.8063 127.293 94.7975C127.356 94.7887 127.418 94.7784 127.48 94.7666C127.543 94.7554 127.606 94.7425 127.668 94.7278C127.73 94.7131 127.792 94.6972 127.854 94.6801L131.356 93.6988L135.281 82.7564L136.18 92.3582L152.103 87.925L148.286 47.1788L121.146 49.8531L121.89 50.5698C124.363 52.9769 126.124 56.0197 126.98 59.3632C127.828 62.7514 128.09 66.2599 127.754 69.7365C127.44 73.252 126.789 76.7292 125.81 80.1202C124.959 83.1229 123.934 86.0741 122.743 88.9589C122.589 89.3291 122.487 89.7191 122.442 90.1175Z" fill="#2F2E41"/>
<path d="M126.061 218.585C125.594 218.584 125.133 218.48 124.712 218.28L49.5267 220.198C48.9497 219.925 48.4692 219.483 48.1487 218.931C47.8281 218.379 47.6826 217.742 47.7312 217.106C47.7799 216.469 48.0205 215.862 48.4212 215.365C48.822 214.869 49.364 214.505 49.9758 214.322L99.1641 199.656C99.6735 199.504 100.213 199.484 100.732 199.596L176.818 208.87C177.492 209.015 178.099 209.377 178.547 209.9C178.996 210.423 179.26 211.078 179.301 211.766C179.342 212.453 179.157 213.136 178.774 213.708C178.391 214.281 177.831 214.712 177.18 214.937L127.091 218.411C126.76 218.526 126.411 218.584 126.061 218.585Z" fill="#3F3D56"/>
<path d="M128.826 213.351C128.486 213.351 128.153 213.264 127.856 213.098L66.7948 215.951C66.4481 215.757 66.1679 215.462 65.9908 215.106C65.8138 214.75 65.748 214.349 65.8021 213.955C65.8562 213.562 66.0276 213.193 66.2941 212.898C66.5605 212.603 66.9097 212.395 67.296 212.301L89.4015 206.936C89.7466 206.853 90.1076 206.863 90.4471 206.967L147.212 206.898C147.617 207.022 147.97 207.272 148.222 207.611C148.474 207.951 148.611 208.362 148.613 208.784C148.614 209.207 148.48 209.619 148.231 209.96C147.981 210.301 147.629 210.553 147.226 210.68L129.416 213.261C129.225 213.32 129.026 213.351 128.826 213.351Z" fill="#2F2E41"/>
<path d="M122.399 210.096C123.456 210.778 124.649 211.219 125.895 211.389C127.141 211.56 128.409 211.455 129.61 211.082C130.811 210.709 131.916 210.077 132.846 209.231C133.776 208.385 134.51 207.346 134.995 206.186L199.627 211.262L196.502 195.251L129.839 194.615C127.837 193.93 125.651 194.002 123.699 194.82C121.746 195.637 120.16 197.143 119.243 199.051C118.326 200.959 118.141 203.137 118.722 205.173C119.304 207.209 120.612 208.961 122.399 210.096Z" fill="#A0616A"/>
<path d="M160.573 105.819C160.573 105.819 170.337 98.008 182.053 112.067C189.954 121.548 205.195 178.866 206.459 202.617C206.539 204.12 206.308 205.623 205.779 207.032C205.251 208.442 204.438 209.727 203.39 210.807C202.342 211.887 201.082 212.739 199.689 213.31C198.296 213.88 196.801 214.157 195.296 214.122L160.847 213.523L156.995 191.868L184.193 192.19L160.573 105.819Z" fill="#6C63FF"/>
<path d="M121.879 218.593C120.697 218.592 119.527 218.356 118.438 217.897L48.7508 219.487C46.9116 218.72 45.3849 217.355 44.4175 215.613C43.4501 213.871 43.0985 211.853 43.4196 209.887L40.8302 148.686C41.1736 146.5 42.3242 144.522 44.0548 143.143C45.7853 141.764 47.9701 141.084 50.1776 141.237L114.874 143.92C116.116 144.002 117.327 144.343 118.429 144.923C119.53 145.502 120.497 146.307 121.268 147.284C122.038 148.262 122.595 149.39 122.901 150.596C123.207 151.803 123.256 153.06 123.045 154.286L130.625 211.214C130.269 213.276 129.196 215.147 127.597 216.497C125.997 217.847 123.972 218.589 121.879 218.593Z" fill="#3F3D56"/>
<path d="M68.9624 36.3858L39.8794 36.3038C39.0998 36.3029 38.3517 36.6111 37.799 37.1609C37.2463 37.7107 36.9341 38.4572 36.9309 39.2367L36.8254 77.7472C36.8238 78.5259 37.1314 79.2735 37.6806 79.8256C38.2298 80.3777 38.9757 80.6893 39.7544 80.6918L55.8873 80.7386L68.8413 80.7738C69.6207 80.7752 70.3687 80.467 70.9209 79.917C71.4731 79.367 71.7842 78.6203 71.7859 77.8409L71.7937 75.5641L71.8953 39.3344C71.8968 38.5546 71.5888 37.8061 71.0389 37.2532C70.489 36.7004 69.7421 36.3884 68.9624 36.3858Z" fill="#E6E6E6"/>
<path d="M66.912 38.6861L41.9179 38.6158C41.1881 38.6149 40.4876 38.9034 39.9701 39.418C39.4525 39.9326 39.1601 40.6314 39.1569 41.3613L39.0866 66.1211C39.0817 69.3727 40.3667 72.4935 42.6597 74.7989C44.9527 77.1044 48.0665 78.4062 51.318 78.4189L56.0669 78.4306L66.8027 78.4619C67.5327 78.4635 68.2336 78.1752 68.7513 77.6605C69.269 77.1457 69.5612 76.4465 69.5637 75.7164L69.5715 73.2248L69.6574 41.4472C69.659 40.7171 69.3708 40.0163 68.856 39.4986C68.3413 38.9809 67.6421 38.6887 66.912 38.6861Z" fill="white"/>
<path d="M64.1041 55.604H44.6165C44.4629 55.604 44.3108 55.6343 44.1689 55.693C44.027 55.7518 43.8981 55.838 43.7895 55.9466C43.6809 56.0552 43.5947 56.1841 43.5359 56.326C43.4771 56.4679 43.4469 56.62 43.4469 56.7736C43.4469 56.9272 43.4771 57.0793 43.5359 57.2213C43.5947 57.3632 43.6809 57.4921 43.7895 57.6007C43.8981 57.7093 44.027 57.7955 44.1689 57.8543C44.3108 57.913 44.4629 57.9433 44.6165 57.9433H64.1041C64.4143 57.9433 64.7118 57.8201 64.9312 57.6007C65.1505 57.3814 65.2738 57.0839 65.2738 56.7736C65.2738 56.4634 65.1505 56.1659 64.9312 55.9466C64.7118 55.7272 64.4143 55.604 64.1041 55.604Z" fill="#6C63FF"/>
<path d="M48.9007 49.1915H44.6165C44.3063 49.1915 44.0088 49.3148 43.7895 49.5341C43.5701 49.7535 43.4469 50.051 43.4469 50.3612C43.4469 50.6714 43.5701 50.9689 43.7895 51.1882C44.0088 51.4076 44.3063 51.5308 44.6165 51.5308H48.9007C49.2109 51.5308 49.5084 51.4076 49.7278 51.1882C49.9471 50.9689 50.0703 50.6714 50.0703 50.3612C50.0703 50.051 49.9471 49.7535 49.7278 49.5341C49.5084 49.3148 49.2109 49.1915 48.9007 49.1915Z" fill="#6C63FF"/>
<path d="M64.1041 65.8867H44.6165C44.3063 65.8867 44.0088 66.01 43.7895 66.2293C43.5701 66.4487 43.4469 66.7462 43.4469 67.0564C43.4469 67.3666 43.5701 67.6641 43.7895 67.8834C44.0088 68.1028 44.3063 68.226 44.6165 68.226H64.1041C64.4143 68.226 64.7118 68.1028 64.9312 67.8834C65.1505 67.6641 65.2738 67.3666 65.2738 67.0564C65.2738 66.7462 65.1505 66.4487 64.9312 66.2293C64.7118 66.01 64.4143 65.8867 64.1041 65.8867Z" fill="#6C63FF"/>
<path d="M64.1041 60.7473H44.6165C44.3068 60.7473 44.0098 60.8703 43.7909 61.0893C43.5719 61.3083 43.4489 61.6053 43.4489 61.915C43.4489 62.2247 43.5719 62.5217 43.7909 62.7407C44.0098 62.9597 44.3068 63.0827 44.6165 63.0827H64.1041C64.4138 63.0827 64.7108 62.9597 64.9298 62.7407C65.1488 62.5217 65.2718 62.2247 65.2718 61.915C65.2718 61.6053 65.1488 61.3083 64.9298 61.0893C64.7108 60.8703 64.4138 60.7473 64.1041 60.7473Z" fill="#6C63FF"/>
<path d="M60.3174 53.3274C58.949 53.3274 57.6113 52.9216 56.4735 52.1614C55.3357 51.4011 54.4489 50.3206 53.9252 49.0563C53.4016 47.7921 53.2645 46.4009 53.5315 45.0588C53.7985 43.7167 54.4574 42.4838 55.425 41.5162C56.3927 40.5486 57.6255 39.8897 58.9676 39.6227C60.3097 39.3557 61.7009 39.4927 62.9651 40.0164C64.2294 40.5401 65.3099 41.4269 66.0702 42.5647C66.8304 43.7025 67.2362 45.0402 67.2362 46.4086C67.2341 48.2429 66.5045 50.0016 65.2074 51.2986C63.9104 52.5957 62.1517 53.3253 60.3174 53.3274ZM60.3174 39.9706C59.0441 39.9706 57.7994 40.3481 56.7406 41.0556C55.6819 41.763 54.8567 42.7684 54.3694 43.9448C53.8821 45.1212 53.7546 46.4157 54.0031 47.6646C54.2515 48.9134 54.8646 50.0606 55.765 50.9609C56.6654 51.8613 57.8125 52.4745 59.0614 52.7229C60.3102 52.9713 61.6047 52.8438 62.7811 52.3565C63.9575 51.8693 64.963 51.0441 65.6704 49.9854C66.3778 48.9266 66.7554 47.6819 66.7554 46.4086C66.7535 44.7017 66.0746 43.0653 64.8676 41.8584C63.6607 40.6514 62.0243 39.9725 60.3174 39.9706Z" fill="#6C63FF"/>
<path d="M63.2231 49.0885C62.7452 46.6211 61.7499 44.283 60.3027 42.2283C60.27 42.175 60.2242 42.131 60.1697 42.1005C60.1152 42.07 60.0538 42.054 59.9913 42.054C59.9288 42.054 59.8674 42.07 59.8129 42.1005C59.7583 42.131 59.7126 42.175 59.6799 42.2283C58.4195 44.4329 57.6139 46.8677 57.3106 49.389C57.2545 49.8487 57.9763 49.8446 58.0318 49.389C58.1332 48.5719 58.2911 47.7629 58.5046 46.9677C58.5322 46.9623 58.5592 46.954 58.5852 46.943C59.5442 46.4615 60.6276 46.2851 61.6898 46.4375C61.6991 46.4388 61.708 46.4368 61.7172 46.4377C62.068 47.3603 62.3391 48.3113 62.5277 49.2802C62.6156 49.7354 63.3109 49.5427 63.2231 49.0885ZM58.7642 46.0832C59.0952 45.0563 59.5167 44.0606 60.0236 43.1081C60.5601 43.9278 61.026 44.7916 61.4161 45.6902C60.5139 45.6224 59.608 45.7566 58.7642 46.0832Z" fill="#6C63FF"/>
</g>
<defs>
<clipPath id="clip0_252_1273">
<rect width="264" height="264" fill="white"/>
</clipPath>
</defs>
</svg>
